HIERARCHY
ROOT joint_0
{
	OFFSET 0.000000 0.000000 0.000000
	CHANNELS 6 Xposition Yposition Zposition Zrotation Yrotation Xrotation 
	JOINT joint_1
	{
		OFFSET 0.000000 0.000000 0.000000
		CHANNELS 3 Zrotation Yrotation Xrotation
		JOINT joint_2
		{
			OFFSET 3.811170 -8.520760 0.839290
			CHANNELS 3 Zrotation Yrotation Xrotation
			JOINT joint_3
			{
				OFFSET 2.562200 -7.039590 0.000000
				CHANNELS 3 Zrotation Yrotation Xrotation
				JOINT joint_4
				{
					OFFSET 0.157640 -0.433110 2.322550
					CHANNELS 3 Zrotation Yrotation Xrotation
					End Site
					{
						OFFSET 0.000000 0.000000 0.000000
					}
				}
			}
		}
	}
	JOINT joint_5
	{
		OFFSET 0.000000 0.000000 0.000000
		CHANNELS 3 Zrotation Yrotation Xrotation
		JOINT joint_6
		{
			OFFSET -3.848050 -8.780180 0.839290
			CHANNELS 3 Zrotation Yrotation Xrotation
			JOINT joint_7
			{
				OFFSET -2.568260 -7.056230 0.000000
				CHANNELS 3 Zrotation Yrotation Xrotation
				JOINT joint_8
				{
					OFFSET -0.164730 -0.452590 2.363150
					CHANNELS 3 Zrotation Yrotation Xrotation
					End Site
					{
						OFFSET 0.000000 0.000000 0.000000
					}
				}
			}
		}
	}
	JOINT joint_9
	{
		OFFSET 0.028270 2.035590 -0.193380
		CHANNELS 3 Zrotation Yrotation Xrotation
		JOINT joint_10
		{
			OFFSET 0.056720 2.048850 -0.042750
			CHANNELS 3 Zrotation Yrotation Xrotation
			JOINT joint_11
			{
				OFFSET -0.054170 1.746240 0.172020
				CHANNELS 3 Zrotation Yrotation Xrotation
				JOINT joint_12
				{
					OFFSET 0.104070 1.761360 -0.123970
					CHANNELS 3 Zrotation Yrotation Xrotation
					End Site
					{
						OFFSET 0.000000 0.000000 0.000000
					}
				}
			}
			JOINT joint_13
			{
				OFFSET 3.362410 1.200890 -0.311210
				CHANNELS 3 Zrotation Yrotation Xrotation
				JOINT joint_14
				{
					OFFSET 4.983000 -0.000000 -0.000000
					CHANNELS 3 Zrotation Yrotation Xrotation
					JOINT joint_15
					{
						OFFSET 3.483560 -0.000000 -0.000000
						CHANNELS 3 Zrotation Yrotation Xrotation
						JOINT joint_16
						{
							OFFSET 0.715260 -0.000000 -0.000000
							CHANNELS 3 Zrotation Yrotation Xrotation
							End Site
							{
								OFFSET 0.000000 0.000000 0.000000
							}
						}
					}
				}
			}
			JOINT joint_17
			{
				OFFSET -3.136600 1.374050 -0.404650
				CHANNELS 3 Zrotation Yrotation Xrotation
				JOINT joint_18
				{
					OFFSET -5.241900 -0.000000 -0.000000
					CHANNELS 3 Zrotation Yrotation Xrotation
					JOINT joint_19
					{
						OFFSET -3.444170 -0.000000 -0.000000
						CHANNELS 3 Zrotation Yrotation Xrotation
						JOINT joint_20
						{
							OFFSET -0.622530 -0.000000 -0.000000
							CHANNELS 3 Zrotation Yrotation Xrotation
							End Site
							{
								OFFSET 0.000000 0.000000 0.000000
							}
						}
					}
				}
			}
		}
	}
}
MOTION
Frames: 7
Frame Time: 0.031667
-2.459858 14.507683 5.742495 170.276443 -42.221558 178.379807 -49.857154 -13.258479 -33.176370 -37.682832 12.475185 11.035593 -6.461812 12.135885 -10.539882 0.026526 -0.072070 -0.938832 -11.126775 -8.121564 19.125565 48.657531 -1.733643 -7.402386 15.251432 -33.585733 -72.046692 0.012527 -0.153944 1.334400 -3.426021 4.588747 0.513529 -3.136139 0.119276 -0.828433 -6.163538 -3.836116 0.649970 -7.316106 1.185838 3.002805 -55.040177 -2.405332 2.632345 48.262105 -74.088290 -36.619949 1.294065 0.942242 1.183982 -6.948140 0.060150 0.305661 107.490989 20.677941 50.459554 -52.939488 64.298265 -34.980380 2.297161 -4.446265 -2.494446 7.135964 -0.003082 0.156400 
-2.618448 14.527208 5.658350 170.375656 -37.557163 178.634201 -48.488685 -12.045354 -35.093526 -36.907412 13.422559 12.616889 -3.767875 9.278935 -6.570592 0.028802 0.019420 -0.665958 -10.721154 -8.672465 21.396846 47.828875 -1.016034 -8.117951 14.353868 -32.625474 -72.489427 0.017989 -0.219854 1.427685 -4.179462 4.454028 0.942615 -3.534995 -0.353863 -0.662277 -5.509647 -3.565330 -0.000353 -6.912856 1.196462 2.918585 -53.872347 -1.733473 2.420127 54.457468 -75.611543 -43.503181 1.075330 0.896112 1.064206 -6.953051 0.065815 0.304641 107.314019 21.259256 51.420425 -56.676519 65.515355 -39.900356 2.178553 -4.234814 -3.097945 7.138995 0.002597 0.162607 
-2.764054 14.545231 5.564871 170.413406 -32.941769 178.892181 -47.187358 -11.081476 -36.599664 -36.633455 14.157699 13.938120 -1.658814 5.751965 -3.868541 0.034713 0.000731 -0.691527 -11.297675 -10.000664 21.594109 47.344228 -0.648764 -8.120686 13.722975 -32.523773 -71.842083 0.025846 -0.258308 1.499381 -4.319180 4.431864 1.451203 -3.878808 -0.189736 -0.368291 -5.511493 -3.538165 -0.830733 -6.609906 1.163346 3.136363 -53.571495 -1.340699 2.586119 61.249661 -77.037684 -51.209511 0.862263 0.706316 1.252636 -6.951071 0.070609 0.307749 106.860703 21.386062 52.130772 -56.565698 66.446386 -41.729538 2.410151 -4.130916 -3.510796 7.144542 0.007297 0.172085 
-2.906213 14.562422 5.467940 170.488632 -28.315804 179.197021 -45.701587 -9.551138 -37.723992 -35.727578 15.014316 14.878320 -0.307498 2.984869 -2.435976 0.008494 -0.071476 -0.775881 -12.051356 -11.078157 20.181200 46.430479 -1.632883 -7.833397 13.223447 -32.762814 -71.092582 0.000722 -0.349094 1.482860 -4.552047 4.075666 1.307886 -4.473454 -0.188306 -0.781762 -5.409444 -3.743861 -1.233429 -6.340420 0.815151 3.104613 -52.876643 -1.249747 2.842461 68.278892 -77.950534 -59.292383 0.719259 0.413209 1.361760 -6.983221 0.040322 0.276773 106.144851 21.751089 52.218728 -50.211759 64.557978 -38.491131 2.427828 -3.628270 -3.225547 7.106983 -0.017774 0.142787 
-3.037075 14.576888 5.359700 170.548111 -23.823706 179.467407 -43.983776 -7.758427 -38.520969 -35.010351 15.335051 15.755453 0.100851 0.775637 -1.676927 -0.030258 -0.166990 -0.899526 -12.114232 -11.919209 18.645884 45.339229 -2.363830 -7.452777 12.977966 -32.704870 -70.493284 -0.038553 -0.487534 1.526325 -4.561509 4.008221 1.016471 -5.123347 -0.582003 -1.450824 -4.626135 -4.477529 -1.625949 -6.197302 0.282200 2.714333 -52.166171 -1.712807 2.661929 75.568039 -78.426567 -67.778981 0.668849 0.110877 1.489616 -7.028214 -0.002163 0.228911 105.839262 22.156919 52.417240 -38.296065 61.252539 -31.519553 2.567470 -2.565347 -2.644930 7.053826 -0.052993 0.095083 
-3.164959 14.590025 5.247998 170.648514 -19.354546 179.764572 -41.303521 -6.589878 -39.109552 -34.390321 16.074418 16.666028 0.176642 -1.279922 -0.973943 -0.078290 -0.237124 -0.936601 -11.832893 -12.175869 16.717281 44.528636 -2.643982 -6.480183 12.329809 -33.029231 -68.993407 -0.086818 -0.654554 1.582957 -4.227084 3.759554 0.659325 -5.312555 -0.330206 -1.748218 -3.441915 -6.066318 -1.990805 -6.162758 -0.353782 2.275807 -51.571735 -2.045552 2.672947 86.559139 -78.083511 -79.839363 0.299624 -0.724908 1.555225 -7.080315 -0.052533 0.170787 105.585550 22.973833 52.095946 -26.958135 56.345291 -26.939468 2.760006 -2.005690 -1.837524 6.989157 -0.095172 0.037913 
-3.282469 14.598531 5.124234 170.778320 -15.053505 -179.976471 -38.875310 -5.078634 -39.812264 -33.507444 16.719486 17.482962 0.142924 -3.399498 -0.600348 -0.135039 -0.365537 -1.103524 -11.671275 -12.690200 14.393700 43.714809 -3.436530 -5.727890 11.534429 -32.727169 -67.145493 -0.146654 -0.856318 1.649689 -4.044763 3.387036 0.607670 -5.335142 -0.655832 -1.822794 -2.684660 -6.729099 -2.592998 -6.223317 -1.052840 2.020406 -51.009802 -2.755066 2.794074 94.934087 -77.666812 -89.663690 0.037640 -1.559128 1.468422 -7.144649 -0.113762 0.102853 104.970778 23.916747 51.245254 -13.816175 47.971470 -22.536972 2.659364 -1.578709 -1.046120 6.913510 -0.147034 -0.032344 
